<?xml version="1.0" encoding="UTF-8" standalone="no"?>
<!-- Created with Inkscape (http://www.inkscape.org/) -->

<svg
   width="122.75349mm"
   height="122.06397mm"
   viewBox="0 0 122.75349 122.06397"
   version="1.1"
   id="svg1"
   inkscape:version="1.3.2 (091e20e, 2023-11-25, custom)"
   sodipodi:docname="flomadcolorlogo.svg"
   xml:space="preserve"
   xmlns:inkscape="http://www.inkscape.org/namespaces/inkscape"
   xmlns:sodipodi="http://sodipodi.sourceforge.net/DTD/sodipodi-0.dtd"
   xmlns="http://www.w3.org/2000/svg"
   xmlns:svg="http://www.w3.org/2000/svg"><sodipodi:namedview
     id="namedview1"
     pagecolor="#ffffff"
     bordercolor="#000000"
     borderopacity="0.25"
     inkscape:showpageshadow="2"
     inkscape:pageopacity="0.0"
     inkscape:pagecheckerboard="0"
     inkscape:deskcolor="#d1d1d1"
     inkscape:document-units="mm"
     inkscape:zoom="0.5"
     inkscape:cx="336"
     inkscape:cy="919"
     inkscape:window-width="1920"
     inkscape:window-height="991"
     inkscape:window-x="-9"
     inkscape:window-y="-9"
     inkscape:window-maximized="1"
     inkscape:current-layer="g97"
     showguides="true" /><defs
     id="defs1"><inkscape:path-effect
       effect="fillet_chamfer"
       id="path-effect120"
       is_visible="true"
       lpeversion="1"
       nodesatellites_param="F,0,0,1,0,1.0583333,0,1 @ F,0,0,1,0,1.0583333,0,1 @ F,0,0,1,0,1.0583333,0,1 @ F,0,0,1,0,1.0583333,0,1 @ F,0,0,1,0,1.0583333,0,1 @ F,0,0,1,0,1.0583333,0,1"
       radius="4"
       unit="px"
       method="auto"
       mode="F"
       chamfer_steps="1"
       flexible="false"
       use_knot_distance="true"
       apply_no_radius="true"
       apply_with_radius="true"
       only_selected="false"
       hide_knots="false" /><inkscape:path-effect
       effect="fillet_chamfer"
       id="path-effect118"
       is_visible="true"
       lpeversion="1"
       nodesatellites_param="F,0,0,1,0,1.0583333,0,1 @ F,0,0,1,0,1.0583333,0,1 @ F,0,0,1,0,1.0583333,0,1 @ F,0,0,1,0,1.0583333,0,1 @ F,0,0,1,0,1.0583333,0,1 @ F,0,0,1,0,1.0583333,0,1"
       radius="4"
       unit="px"
       method="auto"
       mode="F"
       chamfer_steps="1"
       flexible="false"
       use_knot_distance="true"
       apply_no_radius="true"
       apply_with_radius="true"
       only_selected="false"
       hide_knots="false" /><inkscape:path-effect
       effect="fillet_chamfer"
       id="path-effect105"
       is_visible="true"
       lpeversion="1"
       nodesatellites_param="F,0,0,1,0,1.0583333,0,1 @ F,0,0,1,0,1.0583333,0,1 @ F,0,0,1,0,1.0583333,0,1 @ F,0,0,1,0,1.0583333,0,1 @ F,0,0,1,0,1.0583333,0,1"
       radius="4"
       unit="px"
       method="auto"
       mode="F"
       chamfer_steps="1"
       flexible="false"
       use_knot_distance="true"
       apply_no_radius="true"
       apply_with_radius="true"
       only_selected="false"
       hide_knots="false" /><inkscape:path-effect
       effect="fillet_chamfer"
       id="path-effect104"
       is_visible="true"
       lpeversion="1"
       nodesatellites_param="F,0,0,1,0,0.79375,0,1 @ F,0,0,1,0,0.79375,0,1 @ F,0,0,1,0,0.79375,0,1 @ F,0,0,1,0,0.79375,0,1 @ F,0,0,1,0,0.79375,0,1 @ F,0,0,1,0,0.79375,0,1 @ F,0,0,1,0,0.79375,0,1 @ F,0,0,1,0,0.79375,0,1 @ F,0,0,1,0,0.79375,0,1"
       radius="3"
       unit="px"
       method="auto"
       mode="F"
       chamfer_steps="1"
       flexible="false"
       use_knot_distance="true"
       apply_no_radius="true"
       apply_with_radius="true"
       only_selected="false"
       hide_knots="false" /><inkscape:path-effect
       effect="fillet_chamfer"
       id="path-effect103"
       is_visible="true"
       lpeversion="1"
       nodesatellites_param="F,0,0,1,0,1.0583333,0,1 @ F,0,0,1,0,1.0583333,0,1 @ F,0,0,1,0,1.0583333,0,1 @ F,0,0,1,0,1.0583333,0,1 @ F,0,0,1,0,1.0583333,0,1"
       radius="4"
       unit="px"
       method="auto"
       mode="F"
       chamfer_steps="1"
       flexible="false"
       use_knot_distance="true"
       apply_no_radius="true"
       apply_with_radius="true"
       only_selected="false"
       hide_knots="false" /><inkscape:path-effect
       effect="fillet_chamfer"
       id="path-effect102"
       is_visible="true"
       lpeversion="1"
       nodesatellites_param="F,0,0,1,0,1.0583333,0,1 @ F,0,0,1,0,1.0583333,0,1 @ F,0,0,1,0,1.0583333,0,1 @ F,0,0,1,0,1.0583333,0,1 @ F,0,0,1,0,1.0583333,0,1"
       radius="4"
       unit="px"
       method="auto"
       mode="F"
       chamfer_steps="1"
       flexible="false"
       use_knot_distance="true"
       apply_no_radius="true"
       apply_with_radius="true"
       only_selected="false"
       hide_knots="false" /><inkscape:path-effect
       effect="fillet_chamfer"
       id="path-effect101"
       is_visible="true"
       lpeversion="1"
       nodesatellites_param="F,0,0,1,0,1.0583333,0,1 @ F,0,0,1,0,1.0583333,0,1 @ F,0,0,1,0,1.0583333,0,1 @ F,0,0,1,0,1.0583333,0,1 @ F,0,0,1,0,1.0583333,0,1 @ F,0,0,1,0,1.0583333,0,1"
       radius="4"
       unit="px"
       method="auto"
       mode="F"
       chamfer_steps="1"
       flexible="false"
       use_knot_distance="true"
       apply_no_radius="true"
       apply_with_radius="true"
       only_selected="false"
       hide_knots="false" /><inkscape:path-effect
       effect="fillet_chamfer"
       id="path-effect100"
       is_visible="true"
       lpeversion="1"
       nodesatellites_param="F,0,0,1,0,1.0583333,0,1 @ F,0,0,1,0,1.0583333,0,1 @ F,0,0,1,0,1.0583333,0,1 @ F,0,0,1,0,1.0583333,0,1 @ F,0,0,1,0,1.0583333,0,1"
       radius="4"
       unit="px"
       method="auto"
       mode="F"
       chamfer_steps="1"
       flexible="false"
       use_knot_distance="true"
       apply_no_radius="true"
       apply_with_radius="true"
       only_selected="false"
       hide_knots="false" /><inkscape:path-effect
       effect="fillet_chamfer"
       id="path-effect99"
       is_visible="true"
       lpeversion="1"
       nodesatellites_param="F,0,0,1,0,1.0583333,0,1 @ F,0,0,1,0,1.0583333,0,1 @ F,0,0,1,0,1.0583333,0,1 @ F,0,0,1,0,1.0583333,0,1 @ F,0,0,1,0,1.0583333,0,1"
       radius="4"
       unit="px"
       method="auto"
       mode="F"
       chamfer_steps="1"
       flexible="false"
       use_knot_distance="true"
       apply_no_radius="true"
       apply_with_radius="true"
       only_selected="false"
       hide_knots="false" /><inkscape:path-effect
       effect="fillet_chamfer"
       id="path-effect98"
       is_visible="true"
       lpeversion="1"
       nodesatellites_param="F,0,0,1,0,0,0,1 @ F,0,0,1,0,0,0,1 @ F,0,0,1,0,0.42921306,0,1 @ F,0,0,1,0,0,0,1 @ F,0,0,1,0,0,0,1 @ F,0,0,1,0,0,0,1 @ F,0,0,1,0,0,0,1 @ F,0,0,1,0,0,0,1 @ F,0,0,1,0,0,0,1"
       radius="0"
       unit="px"
       method="auto"
       mode="F"
       chamfer_steps="1"
       flexible="false"
       use_knot_distance="true"
       apply_no_radius="true"
       apply_with_radius="true"
       only_selected="false"
       hide_knots="false" /><inkscape:path-effect
       effect="fillet_chamfer"
       id="path-effect13"
       is_visible="true"
       lpeversion="1"
       nodesatellites_param="F,0,0,1,0,0,0,1 @ F,0,0,1,0,0,0,1 @ F,0,0,1,0,0.42921306,0,1 @ F,0,0,1,0,0,0,1 @ F,0,0,1,0,0,0,1 @ F,0,0,1,0,0,0,1 @ F,0,0,1,0,0,0,1 @ F,0,0,1,0,0,0,1 @ F,0,0,1,0,0,0,1"
       radius="0"
       unit="px"
       method="auto"
       mode="F"
       chamfer_steps="1"
       flexible="false"
       use_knot_distance="true"
       apply_no_radius="true"
       apply_with_radius="true"
       only_selected="false"
       hide_knots="false" /><inkscape:path-effect
       effect="fillet_chamfer"
       id="path-effect2"
       is_visible="true"
       lpeversion="1"
       nodesatellites_param="F,0,0,1,0,0,0,1 @ F,0,0,1,0,0,0,1 @ F,0,0,1,0,0.42921306,0,1 @ F,0,0,1,0,0,0,1 @ F,0,0,1,0,0,0,1 @ F,0,0,1,0,0,0,1 @ F,0,0,1,0,0,0,1 @ F,0,0,1,0,0,0,1 @ F,0,0,1,0,0,0,1"
       radius="0"
       unit="px"
       method="auto"
       mode="F"
       chamfer_steps="1"
       flexible="false"
       use_knot_distance="true"
       apply_no_radius="true"
       apply_with_radius="true"
       only_selected="false"
       hide_knots="false" /><inkscape:path-effect
       effect="fillet_chamfer"
       id="path-effect113"
       is_visible="true"
       lpeversion="1"
       nodesatellites_param="F,0,0,1,0,4.7909363,0,1 @ F,0,0,1,0,4.9181797,0,1 @ F,0,0,1,0,1.8039706,0,1 @ F,0,0,1,0,1.2671419,0,1"
       radius="0"
       unit="px"
       method="auto"
       mode="F"
       chamfer_steps="1"
       flexible="false"
       use_knot_distance="true"
       apply_no_radius="true"
       apply_with_radius="true"
       only_selected="false"
       hide_knots="false" /><inkscape:path-effect
       effect="fillet_chamfer"
       id="path-effect18"
       is_visible="true"
       lpeversion="1"
       nodesatellites_param="F,0,0,1,0,4.7909363,0,1 @ F,0,0,1,0,4.9181797,0,1 @ F,0,0,1,0,1.8039706,0,1 @ F,0,0,1,0,1.2671419,0,1"
       radius="0"
       unit="px"
       method="auto"
       mode="F"
       chamfer_steps="1"
       flexible="false"
       use_knot_distance="true"
       apply_no_radius="true"
       apply_with_radius="true"
       only_selected="false"
       hide_knots="false" /><inkscape:path-effect
       effect="fillet_chamfer"
       id="path-effect16"
       is_visible="true"
       lpeversion="1"
       nodesatellites_param="F,0,0,1,0,4.7909363,0,1 @ F,0,0,1,0,4.9181797,0,1 @ F,0,0,1,0,1.8039706,0,1 @ F,0,0,1,0,1.2671419,0,1"
       radius="0"
       unit="px"
       method="auto"
       mode="F"
       chamfer_steps="1"
       flexible="false"
       use_knot_distance="true"
       apply_no_radius="true"
       apply_with_radius="true"
       only_selected="false"
       hide_knots="false" /><inkscape:path-effect
       effect="fillet_chamfer"
       id="path-effect10"
       is_visible="true"
       lpeversion="1"
       nodesatellites_param="F,0,0,1,0,4.7909363,0,1 @ F,0,0,1,0,4.9181797,0,1 @ F,0,0,1,0,1.8039706,0,1 @ F,0,0,1,0,1.2671419,0,1"
       radius="0"
       unit="px"
       method="auto"
       mode="F"
       chamfer_steps="1"
       flexible="false"
       use_knot_distance="true"
       apply_no_radius="true"
       apply_with_radius="true"
       only_selected="false"
       hide_knots="false" /></defs><g
     inkscape:label="Layer 1"
     inkscape:groupmode="layer"
     id="layer1"
     style="display:none"
     transform="translate(-42.355081,-119.31703)"><rect
       style="display:inline;opacity:0.65;fill:#800000;stroke-width:2;stroke-linecap:round;stroke-miterlimit:4.3;stroke-dashoffset:4.98898;paint-order:fill markers stroke"
       id="rect11"
       width="9.1737452"
       height="48.444256"
       x="145.12332"
       y="67.156281"
       ry="4.5868726"
       rx="4.5868726"
       transform="rotate(15)" /><rect
       style="display:inline;opacity:0.65;fill:#800000;stroke-width:2;stroke-linecap:round;stroke-miterlimit:4.3;stroke-dashoffset:4.98898;paint-order:fill markers stroke"
       id="rect12"
       width="9.1737452"
       height="49.131905"
       x="-53.520962"
       y="118.73405"
       ry="4.5868726"
       rx="4.5868726"
       transform="matrix(-0.96592583,0.25881905,0.25881905,0.96592583,0,0)" /><rect
       style="display:inline;opacity:0.65;fill:#800000;stroke-width:2;stroke-linecap:round;stroke-miterlimit:4.3;stroke-dashoffset:4.98898;paint-order:fill markers stroke"
       id="rect13"
       width="9.1737452"
       height="43.475143"
       x="-41.753883"
       y="123.86953"
       ry="4.5868726"
       rx="4.5868726"
       transform="matrix(-0.96592583,0.25881905,0.25881905,0.96592583,0,0)" /><rect
       style="display:inline;opacity:0.65;fill:#800000;stroke-width:2;stroke-linecap:round;stroke-miterlimit:4.3;stroke-dashoffset:4.98898;paint-order:fill markers stroke"
       id="rect14"
       width="9.1737452"
       height="27.471001"
       x="210.30594"
       y="-43.397972"
       ry="4.5868726"
       rx="4.5868726"
       transform="rotate(60)" /><rect
       style="display:inline;opacity:0.65;fill:#800000;stroke-width:2;stroke-linecap:round;stroke-miterlimit:4.3;stroke-dashoffset:4.98898;paint-order:fill markers stroke"
       id="rect15"
       width="9.1737452"
       height="29.955557"
       x="73.578644"
       y="154.65459"
       ry="4.5868731"
       rx="4.5868726" /><rect
       style="display:inline;opacity:0.65;fill:#800000;stroke-width:1.99999;stroke-linecap:round;stroke-miterlimit:4.3;stroke-dashoffset:4.98898;paint-order:fill markers stroke"
       id="rect16"
       width="9.1737452"
       height="42.760578"
       x="97.363647"
       y="152.55226"
       ry="4.5868726"
       rx="4.5868726" /><rect
       style="display:inline;opacity:0.65;fill:#800000;stroke-width:2;stroke-linecap:round;stroke-miterlimit:4.3;stroke-dashoffset:4.98898;paint-order:fill markers stroke"
       id="rect17"
       width="9.1737452"
       height="38.591064"
       x="85.662262"
       y="151.59665"
       ry="4.5868726"
       rx="4.5868726" /><rect
       style="display:inline;opacity:0.65;fill:#800000;stroke-width:2;stroke-linecap:round;stroke-miterlimit:4.3;stroke-dashoffset:4.98898;paint-order:fill markers stroke"
       id="rect18"
       width="9.1737452"
       height="34.733547"
       x="109.21306"
       y="154.65457"
       ry="4.5868726"
       rx="4.5868726" /><rect
       style="display:inline;opacity:0.65;fill:#800000;stroke-width:2;stroke-linecap:round;stroke-miterlimit:4.3;stroke-dashoffset:4.98898;paint-order:fill markers stroke"
       id="rect29"
       width="9.1737452"
       height="48.444256"
       x="133.71388"
       y="69.61985"
       ry="4.5868726"
       rx="4.5868726"
       transform="rotate(15)" /><g
       id="g12"
       sodipodi:insensitive="true"><path
         style="display:inline;opacity:0.65;fill:#800000;stroke-width:2;stroke-linecap:round;stroke-miterlimit:4.3;stroke-dashoffset:4.98898;paint-order:fill markers stroke"
         id="rect1"
         width="9.1737452"
         height="48.444256"
         x="185.42456"
         y="194.58801"
         ry="0"
         rx="0"
         transform="rotate(15)"
         inkscape:path-effect="#path-effect10"
         sodipodi:type="rect"
         d="m 190.2155,194.58801 a 4.658192,4.658192 48.294347 0 1 4.38281,4.91818 v 41.72211 a 1.8039706,1.8039706 135 0 1 -1.80397,1.80397 h -6.10264 a 1.2671419,1.2671419 45 0 1 -1.26714,-1.26714 v -42.38618 a 4.7909363,4.7909363 135 0 1 4.79094,-4.79094 z" /><rect
         style="display:inline;opacity:0.65;fill:#800000;stroke-width:2;stroke-linecap:round;stroke-miterlimit:4.3;stroke-dashoffset:4.98898;paint-order:fill markers stroke"
         id="rect2"
         width="9.1737452"
         height="49.131905"
         x="-24.706995"
         y="249.24377"
         ry="4.5868726"
         rx="4.5868726"
         transform="matrix(-0.96592583,0.25881905,0.25881905,0.96592583,0,0)" /><rect
         style="display:inline;opacity:0.65;fill:#800000;stroke-width:2;stroke-linecap:round;stroke-miterlimit:4.3;stroke-dashoffset:4.98898;paint-order:fill markers stroke"
         id="rect3"
         width="9.1737452"
         height="43.475143"
         x="-12.939919"
         y="254.37926"
         ry="4.5868726"
         rx="4.5868726"
         transform="matrix(-0.96592583,0.25881905,0.25881905,0.96592583,0,0)" /><rect
         style="display:inline;opacity:0.65;fill:#800000;stroke-width:2;stroke-linecap:round;stroke-miterlimit:4.3;stroke-dashoffset:4.98898;paint-order:fill markers stroke"
         id="rect4"
         width="9.1737452"
         height="27.471001"
         x="328.91107"
         y="18.212591"
         ry="4.5868726"
         rx="4.5868726"
         transform="rotate(60)" /><rect
         style="display:inline;opacity:0.65;fill:#800000;stroke-width:2;stroke-linecap:round;stroke-miterlimit:4.3;stroke-dashoffset:4.98898;paint-order:fill markers stroke"
         id="rect5"
         width="9.1737452"
         height="29.955557"
         x="79.524895"
         y="288.17493"
         ry="4.5868731"
         rx="4.5868726" /><rect
         style="display:inline;opacity:0.65;fill:#800000;stroke-width:2;stroke-linecap:round;stroke-miterlimit:4.3;stroke-dashoffset:4.98898;paint-order:fill markers stroke"
         id="rect6"
         width="9.1737452"
         height="42.760578"
         x="103.3099"
         y="286.0726"
         ry="4.5868726"
         rx="4.5868726" /><rect
         style="display:inline;opacity:0.65;fill:#800000;stroke-width:2;stroke-linecap:round;stroke-miterlimit:4.3;stroke-dashoffset:4.98898;paint-order:fill markers stroke"
         id="rect7"
         width="9.1737452"
         height="38.591064"
         x="91.608513"
         y="285.11697"
         ry="4.5868726"
         rx="4.5868726" /><rect
         style="display:inline;opacity:0.65;fill:#800000;stroke-width:2;stroke-linecap:round;stroke-miterlimit:4.3;stroke-dashoffset:4.98898;paint-order:fill markers stroke"
         id="rect8"
         width="9.1737452"
         height="34.733547"
         x="115.15931"
         y="288.1749"
         ry="4.5868726"
         rx="4.5868726" /><rect
         style="display:inline;opacity:0.65;fill:#800000;stroke-width:2;stroke-linecap:round;stroke-miterlimit:4.3;stroke-dashoffset:4.98898;paint-order:fill markers stroke"
         id="rect9"
         width="9.1737452"
         height="48.444256"
         x="174.01512"
         y="197.05157"
         ry="4.5868726"
         rx="4.5868726"
         transform="rotate(15)" /></g><path
       style="display:inline;opacity:0.65;fill:#808000;stroke-width:2;stroke-linecap:round;stroke-miterlimit:4.3;stroke-dashoffset:4.98898;paint-order:fill markers stroke"
       id="path14"
       width="9.1737452"
       height="48.444256"
       x="185.42456"
       y="194.58801"
       ry="0"
       rx="0"
       transform="rotate(-15,-173.37915,249.37466)"
       inkscape:path-effect="#path-effect16"
       sodipodi:type="rect"
       d="m 190.2155,194.58801 a 4.658192,4.658192 48.294347 0 1 4.38281,4.91818 v 41.72211 a 1.8039706,1.8039706 135 0 1 -1.80397,1.80397 h -6.10264 a 1.2671419,1.2671419 45 0 1 -1.26714,-1.26714 v -42.38618 a 4.7909363,4.7909363 135 0 1 4.79094,-4.79094 z" /><path
       style="display:inline;opacity:0.65;fill:#808000;stroke-width:2.11121;stroke-linecap:round;stroke-miterlimit:4.3;stroke-dashoffset:4.98898;paint-order:fill markers stroke"
       id="path16"
       width="9.1737452"
       height="48.444256"
       x="185.42456"
       y="194.58801"
       ry="0"
       rx="0"
       transform="matrix(0.96592583,-0.25881905,0.23227022,0.86684427,-75.627288,-9.0827501)"
       inkscape:path-effect="#path-effect18"
       sodipodi:type="rect"
       d="m 190.2155,194.58801 a 4.658192,4.658192 48.294347 0 1 4.38281,4.91818 v 41.72211 a 1.8039706,1.8039706 135 0 1 -1.80397,1.80397 h -6.10264 a 1.2671419,1.2671419 45 0 1 -1.26714,-1.26714 v -42.38618 a 4.7909363,4.7909363 135 0 1 4.79094,-4.79094 z" /><path
       style="display:inline;opacity:0.65;fill:#808000;stroke-width:2.59349;stroke-linecap:round;stroke-miterlimit:4.3;stroke-dashoffset:4.98898;paint-order:fill markers stroke"
       id="path109"
       width="9.1737452"
       height="48.444256"
       x="185.42456"
       y="194.58801"
       ry="0"
       rx="0"
       transform="matrix(-1,0,0,-0.59468933,355.16179,301.47349)"
       inkscape:path-effect="#path-effect113"
       sodipodi:type="rect"
       d="m 190.2155,194.58801 a 4.658192,4.658192 48.294347 0 1 4.38281,4.91818 v 41.72211 a 1.8039706,1.8039706 135 0 1 -1.80397,1.80397 h -6.10264 a 1.2671419,1.2671419 45 0 1 -1.26714,-1.26714 v -42.38618 a 4.7909363,4.7909363 135 0 1 4.79094,-4.79094 z" /></g><g
     inkscape:groupmode="layer"
     id="layer2"
     inkscape:label="Layer 2"
     style="display:none"
     transform="translate(-42.355081,-119.31703)"><g
       id="g175"
       transform="translate(-298.63081,-754.6746)"
       style="fill:#1a1a1a"><path
         id="path167"
         style="display:inline;opacity:1;fill:#1a1a1a;stroke-width:2;stroke-linecap:round;stroke-miterlimit:4.3;stroke-dashoffset:4.98898;paint-order:fill markers stroke"
         d="m 310.92986,846.02514 a 42.19614,21.893009 0 0 0 -9.16585,2.21743 v 20.23081 a 4.658192,4.1116743 0 0 0 4.38113,4.3403 4.7909363,2.8491187 0 0 0 0.0103,-5.2e-4 4.7909363,4.2288445 0 0 0 4.77439,-4.17235 z"
         inkscape:export-filename="path167.png"
         inkscape:export-xdpi="200"
         inkscape:export-ydpi="200" /><path
         id="path168"
         style="display:inline;opacity:1;fill:#1a1a1a;stroke-width:2;stroke-linecap:round;stroke-miterlimit:4.3;stroke-dashoffset:4.98898;paint-order:fill markers stroke"
         d="m 337.15222,845.98224 v 28.41532 a 4.658192,4.1116743 0 0 0 4.3832,4.34082 4.7909363,4.2288445 0 0 0 4.79092,-4.22868 v -26.30124 a 42.19614,21.893009 0 0 0 -9.17412,-2.22622 z" /><path
         id="path169"
         style="display:inline;opacity:1;fill:#1a1a1a;stroke-width:2;stroke-linecap:round;stroke-miterlimit:4.3;stroke-dashoffset:4.98898;paint-order:fill markers stroke"
         d="m 322.72784,844.92753 a 42.19614,21.893009 0 0 0 -9.17308,0.65009 v 29.42869 a 4.658192,4.1116743 0 0 0 4.38268,4.34082 4.7909363,3.4952176 0 0 0 5.1e-4,0 4.7909363,4.2288445 0 0 0 10e-4,0 4.7909363,4.2288445 0 0 0 4.78937,-4.22506 v -30.19299 a 1.2671419,0.92444076 0 0 0 -5.2e-4,-0.002 z" /><path
         style="display:inline;opacity:1;fill:#1a1a1a;stroke-width:2;stroke-linecap:round;stroke-miterlimit:4.3;stroke-dashoffset:4.98898;paint-order:fill markers stroke"
         d="m 325.56354,844.90481 a 1.8039706,1.5923215 0 0 0 -0.21032,0.69247 v 36.82721 a 4.658192,4.1116743 0 0 0 4.38319,4.34082 4.7909363,4.2288445 0 0 0 4.79092,-4.22868 v -36.94142 a 42.19614,21.893009 0 0 0 -8.96379,-0.6904 z"
         id="path170" /><path
         id="path171"
         style="display:inline;opacity:1;fill:#1a1a1a;stroke-width:2;stroke-linecap:round;stroke-miterlimit:4.3;stroke-dashoffset:4.98898;paint-order:fill markers stroke"
         d="m 299.08789,819.41097 c -0.31718,-1.8e-4 -0.63497,0.0313 -0.9493,0.0987 -0.16645,0.0508 -0.32794,0.10718 -0.48576,0.16691 -2.18325,0.9101 -2.94242,3.63756 -2.37815,5.74384 l 6.31435,20.13107 c 2.76857,-0.95858 6.04937,-1.74383 9.1736,-2.33939 l -6.65489,-20.34398 c -1.7e-4,-5.1e-4 -3.5e-4,-10e-4 -5.2e-4,-0.002 -0.61874,-1.88867 -2.79968,-3.4544 -5.01933,-3.4556 z" /><path
         id="path172"
         style="display:inline;opacity:1;fill:#1a1a1a;stroke-width:2;stroke-linecap:round;stroke-miterlimit:4.3;stroke-dashoffset:4.98898;paint-order:fill markers stroke"
         d="m 350.85426,811.98098 c -2.00268,-0.0791 -3.82071,1.00349 -4.41214,2.7833 l -8.96275,28.25409 c 3.10275,0.59288 6.34259,1.34832 9.09815,2.29908 l 8.54832,-27.59676 0.008,-0.0264 0.14467,-0.47077 c 0.48397,-1.99628 -0.77741,-4.15775 -3.00911,-4.99298 -0.47286,-0.1501 -0.94908,-0.23122 -1.41542,-0.24959 z" /><path
         id="path173"
         style="display:inline;opacity:1;fill:#1a1a1a;stroke-width:2;stroke-linecap:round;stroke-miterlimit:4.3;stroke-dashoffset:4.98898;paint-order:fill markers stroke"
         d="m 309.71908,809.89113 c -0.5005,0.006 -1.01035,0.076 -1.50999,0.20413 -2.39092,0.83842 -3.78481,3.17977 -3.14399,5.34127 l 8.62273,27.29549 c 3.02621,-0.44761 6.03144,-0.71819 9.1736,-0.80667 l -9.14466,-29.53463 c -0.51485,-1.30782 -1.74343,-2.20817 -3.21014,-2.45514 -0.0886,-0.0111 -0.17775,-0.0215 -0.26872,-0.0284 -0.17134,-0.0131 -0.34438,-0.0181 -0.51883,-0.016 z" /><path
         style="display:inline;opacity:1;fill:#1a1a1a;stroke-width:2;stroke-linecap:round;stroke-miterlimit:4.3;stroke-dashoffset:4.98898;paint-order:fill markers stroke"
         d="m 339.61965,804.14489 c -2.08476,0.0462 -3.78738,1.348 -4.15116,3.17397 l -9.92757,34.60667 c 3.14227,0.0826 6.14525,0.27767 9.17412,0.7195 l 9.64385,-33.06068 c 0.60449,-2.25593 -0.97733,-4.63989 -3.53311,-5.32474 -0.39802,-0.0852 -0.80352,-0.12374 -1.20613,-0.11472 z"
         id="path174" /><path
         id="path175"
         style="display:inline;opacity:1;fill:#1a1a1a;stroke-width:2;stroke-linecap:round;stroke-miterlimit:4.3;stroke-dashoffset:4.98898;paint-order:fill markers stroke"
         d="m 366.51492,850.33807 c -0.79324,-0.0687 -1.44315,0.15851 -1.8433,0.64441 L 348.8097,866.8444 a 1.036212,1.036212 112.5 0 0 -0.3035,0.73271 v 10.43266 c 2.1e-4,0.61565 0.73305,0.93639 1.18545,0.51883 l 5.27565,-4.86843 16.24449,-16.24449 c 0.77416,-0.77376 0.73439,-2.22473 -0.10232,-3.73311 -0.32738,-0.58982 -0.76171,-1.16033 -1.27073,-1.66915 -1.03494,-0.96642 -2.2583,-1.58304 -3.32382,-1.67535 z"
         inkscape:path-effect="#path-effect2"
         inkscape:original-d="m 366.51492,850.33807 a 4.658192,2.7701771 44.999999 0 0 -1.8433,0.64441 L 348.5062,867.1479 v 10.86187 a 0.70636506,0.70636506 0 0 0 1.18545,0.51883 l 5.27565,-4.86843 16.24449,-16.24449 a 4.7909363,2.8491187 44.999999 0 0 -0.10232,-3.73311 4.7909363,2.8491187 44.999999 0 0 -1.27073,-1.66915 4.658192,2.7701771 44.999999 0 0 -3.32382,-1.67535 z"
         transform="translate(0.43736562,-5.0085984)" /><circle
         style="opacity:1;fill:none;stroke:#000000;stroke-width:3.7;stroke-linecap:round;stroke-miterlimit:4.3;stroke-dasharray:none;stroke-opacity:1;paint-order:fill markers stroke"
         id="path166"
         cx="180.77826"
         cy="775.73749"
         r="45.806847" /><path
         id="path2"
         style="display:inline;opacity:1;fill:#ffffff;stroke-width:2;stroke-linecap:round;stroke-miterlimit:4.3;stroke-dashoffset:4.98898;paint-order:fill markers stroke"
         d="m 209.24082,905.12964 a 42.19614,21.893009 0 0 0 -9.16585,2.21743 v 20.23081 a 4.658192,4.1116743 0 0 0 4.38113,4.3403 4.7909363,2.8491187 0 0 0 0.0103,-5.2e-4 4.7909363,4.2288445 0 0 0 4.77439,-4.17235 z"
         inkscape:export-filename="path168.png"
         inkscape:export-xdpi="200"
         inkscape:export-ydpi="200" /><path
         id="path3"
         style="display:inline;opacity:1;fill:#ffffff;stroke-width:2;stroke-linecap:round;stroke-miterlimit:4.3;stroke-dashoffset:4.98898;paint-order:fill markers stroke"
         d="m 235.46319,905.08674 v 28.41532 a 4.658192,4.1116743 0 0 0 4.3832,4.34082 4.7909363,4.2288445 0 0 0 4.79092,-4.22868 v -26.30124 a 42.19614,21.893009 0 0 0 -9.17412,-2.22622 z" /><path
         id="path4"
         style="display:inline;opacity:1;fill:#ffffff;stroke-width:2;stroke-linecap:round;stroke-miterlimit:4.3;stroke-dashoffset:4.98898;paint-order:fill markers stroke"
         d="m 221.0388,904.03203 a 42.19614,21.893009 0 0 0 -9.17308,0.65009 v 29.42869 a 4.658192,4.1116743 0 0 0 4.38268,4.34082 4.7909363,3.4952176 0 0 0 5.1e-4,0 4.7909363,4.2288445 0 0 0 0.001,0 4.7909363,4.2288445 0 0 0 4.78937,-4.22506 v -30.19299 a 1.2671419,0.92444076 0 0 0 -5.2e-4,-0.002 z" /><path
         style="display:inline;opacity:1;fill:#ffffff;stroke-width:2;stroke-linecap:round;stroke-miterlimit:4.3;stroke-dashoffset:4.98898;paint-order:fill markers stroke"
         d="m 223.8745,904.00931 a 1.8039706,1.5923215 0 0 0 -0.21032,0.69247 v 36.82721 a 4.658192,4.1116743 0 0 0 4.38319,4.34082 4.7909363,4.2288445 0 0 0 4.79092,-4.22868 v -36.94142 a 42.19614,21.893009 0 0 0 -8.96379,-0.6904 z"
         id="path5" /><path
         id="path6"
         style="display:inline;opacity:1;fill:#ffffff;stroke-width:2;stroke-linecap:round;stroke-miterlimit:4.3;stroke-dashoffset:4.98898;paint-order:fill markers stroke"
         d="m 197.39885,878.51547 c -0.31718,-1.8e-4 -0.63497,0.0313 -0.9493,0.0987 -0.16645,0.0508 -0.32794,0.10718 -0.48576,0.16691 -2.18325,0.9101 -2.94242,3.63756 -2.37815,5.74384 l 6.31435,20.13107 c 2.76857,-0.95858 6.04937,-1.74383 9.1736,-2.33939 l -6.65489,-20.34398 c -1.7e-4,-5.1e-4 -3.5e-4,-10e-4 -5.2e-4,-0.002 -0.61874,-1.88867 -2.79968,-3.4544 -5.01933,-3.4556 z" /><path
         id="path7"
         style="display:inline;opacity:1;fill:#ffffff;stroke-width:2;stroke-linecap:round;stroke-miterlimit:4.3;stroke-dashoffset:4.98898;paint-order:fill markers stroke"
         d="m 249.16522,871.08548 c -2.00268,-0.0791 -3.82071,1.00349 -4.41214,2.7833 l -8.96275,28.25409 c 3.10275,0.59288 6.34259,1.34832 9.09815,2.29908 l 8.54832,-27.59676 0.008,-0.0264 0.14467,-0.47077 c 0.48397,-1.99628 -0.77741,-4.15775 -3.00911,-4.99298 -0.47286,-0.1501 -0.94908,-0.23122 -1.41542,-0.24959 z" /><path
         id="path8"
         style="display:inline;opacity:1;fill:#ffffff;stroke-width:2;stroke-linecap:round;stroke-miterlimit:4.3;stroke-dashoffset:4.98898;paint-order:fill markers stroke"
         d="m 208.03004,868.99563 c -0.5005,0.006 -1.01035,0.076 -1.50999,0.20413 -2.39092,0.83842 -3.78481,3.17977 -3.14399,5.34127 l 8.62273,27.29549 c 3.02621,-0.44761 6.03144,-0.71819 9.1736,-0.80667 l -9.14466,-29.53463 c -0.51485,-1.30782 -1.74343,-2.20817 -3.21014,-2.45514 -0.0886,-0.0111 -0.17775,-0.0215 -0.26872,-0.0284 -0.17134,-0.0131 -0.34438,-0.0181 -0.51883,-0.016 z" /><path
         style="display:inline;opacity:1;fill:#ffffff;stroke-width:2;stroke-linecap:round;stroke-miterlimit:4.3;stroke-dashoffset:4.98898;paint-order:fill markers stroke"
         d="m 237.93061,863.24939 c -2.08476,0.0462 -3.78738,1.348 -4.15116,3.17397 l -9.92757,34.60667 c 3.14227,0.0826 6.14525,0.27767 9.17412,0.7195 l 9.64385,-33.06068 c 0.60449,-2.25593 -0.97733,-4.63989 -3.53311,-5.32474 -0.39802,-0.0852 -0.80352,-0.12374 -1.20613,-0.11472 z"
         id="path9" /><path
         id="path11"
         style="display:inline;opacity:1;fill:#ffffff;stroke-width:2;stroke-linecap:round;stroke-miterlimit:4.3;stroke-dashoffset:4.98898;paint-order:fill markers stroke"
         d="m 366.51492,850.33807 c -0.79324,-0.0687 -1.44315,0.15851 -1.8433,0.64441 L 348.8097,866.8444 a 1.036212,1.036212 112.5 0 0 -0.3035,0.73271 v 10.43266 c 2.1e-4,0.61565 0.73305,0.93639 1.18545,0.51883 l 5.27565,-4.86843 16.24449,-16.24449 c 0.77416,-0.77376 0.73439,-2.22473 -0.10232,-3.73311 -0.32738,-0.58982 -0.76171,-1.16033 -1.27073,-1.66915 -1.03494,-0.96642 -2.2583,-1.58304 -3.32382,-1.67535 z"
         inkscape:path-effect="#path-effect13"
         inkscape:original-d="m 366.51492,850.33807 a 4.658192,2.7701771 44.999999 0 0 -1.8433,0.64441 L 348.5062,867.1479 v 10.86187 a 0.70636506,0.70636506 0 0 0 1.18545,0.51883 l 5.27565,-4.86843 16.24449,-16.24449 a 4.7909363,2.8491187 44.999999 0 0 -0.10232,-3.73311 4.7909363,2.8491187 44.999999 0 0 -1.27073,-1.66915 4.658192,2.7701771 44.999999 0 0 -3.32382,-1.67535 z"
         transform="translate(-101.25167,54.899868)"
         inkscape:export-filename="path168.png"
         inkscape:export-xdpi="200"
         inkscape:export-ydpi="200" /></g></g><g
     inkscape:groupmode="layer"
     id="layer4"
     inkscape:label="Layer 4"
     transform="translate(-42.355081,-119.31703)"><g
       id="g97"
       transform="matrix(1.428961,0,0,1.428961,452.81982,-314.46227)"
       style="fill:#000000;stroke-width:0.699809"><path
         id="path89"
         style="display:inline;opacity:1;fill:#000000;fill-opacity:1;stroke-width:1.39962;stroke-linecap:round;stroke-miterlimit:4.3;stroke-dashoffset:4.98898;paint-order:fill markers stroke"
         d="m -272.62354,348.47349 c -2.40142,0.45845 -4.90269,0.95181 -7.13921,1.75063 -0.55029,0.19655 -0.98709,0.85473 -0.98709,1.43923 v 18.00161 c 0,0.5845 -0.0442,1.54076 0.0776,2.11066 0.69003,3.22898 5.43927,4.32956 7.78006,2.0343 0.41611,-0.40802 0.92743,-1.22973 1.09735,-1.78675 0.25413,-0.8331 0.22659,-1.72427 0.20881,-2.61036 -0.0117,-0.58323 0.002,-1.53007 0.002,-2.11457 l 3e-5,-17.96492 c 0,-0.5845 -0.46542,-0.96944 -1.03955,-0.85983 z"
         inkscape:export-filename="flomadlogo.svg"
         inkscape:export-xdpi="200"
         inkscape:export-ydpi="200"
         inkscape:path-effect="#path-effect105"
         inkscape:original-d="m -271.58399,348.27499 c -3.06297,0.58809 -6.38238,1.16877 -9.16585,2.33003 0,6.70609 0,13.41218 0,20.11827 -0.24689,4.40332 6.37447,5.89653 8.5056,2.25376 0.93521,-1.39472 0.59457,-3.05641 0.66022,-4.62048 1e-5,-6.69386 2e-5,-13.38772 3e-5,-20.08158 z" /><path
         id="path90"
         style="display:inline;opacity:1;fill:#000000;fill-opacity:1;stroke-width:1.39962;stroke-linecap:round;stroke-miterlimit:4.3;stroke-dashoffset:4.98898;paint-order:fill markers stroke"
         d="m -238.63587,351.29718 v 26.29864 c 0,0.5845 -0.046,1.5418 0.0837,2.10964 0.33998,1.48883 1.59706,2.70289 3.25501,3.1309 0.56498,0.14585 1.52375,0.16966 2.09624,0.0565 1.75744,-0.34746 3.15012,-1.54723 3.59193,-3.08197 0.16116,-0.55985 0.1473,-1.51835 0.1473,-2.10285 v -24.18464 c 0,-0.5845 -0.45056,-1.20516 -1.0098,-1.37509 -2.26552,-0.68841 -4.64999,-1.26563 -7.12237,-1.72413 -0.57469,-0.10658 -1.04196,0.28852 -1.04196,0.87302 z"
         inkscape:path-effect="#path-effect100"
         inkscape:original-d="m -238.63587,350.23885 v 28.4153 a 4.658192,4.1116743 0 0 0 4.3832,4.3409 4.7909363,4.2288445 0 0 0 4.79093,-4.2287 v -26.3013 a 42.19614,21.893009 0 0 0 -9.17413,-2.2262 z" /><path
         id="path91"
         style="display:none;opacity:1;fill:#000000;fill-opacity:1;stroke-width:1.39962;stroke-linecap:round;stroke-miterlimit:4.3;stroke-dashoffset:4.98898;paint-order:fill markers stroke"
         d="m -258.33775,347.19191 c -2.55679,0.0593 -5.09788,0.2391 -7.59184,0.53727 -0.43527,0.052 -0.78763,0.45368 -0.78763,0.89206 l 0,27.8412 c 0,0.43838 -0.0321,1.15273 0.0342,1.5852 0.25795,1.68383 1.67969,3.0661 3.56177,3.45008 0.42911,0.0875 0.78698,0.0993 0.78726,0.0993 10e-4,0 10e-4,0 10e-4,0 2.76703,-0.34795 4.33413,-1.70585 4.70557,-3.43727 0.0918,-0.42783 0.0838,-1.1432 0.0838,-1.58158 v -28.6054 a 0,0 89.962465 0 0 -5.2e-4,-0.79375 l 4e-5,-0.002 z"
         inkscape:path-effect="#path-effect104"
         inkscape:original-d="m -257.54414,347.17739 a 42.19614,21.893009 0 0 0 -9.17308,0.6501 v 29.4287 a 4.658192,4.1116743 0 0 0 4.38268,4.3408 4.7909363,3.4952176 0 0 0 5.1e-4,0 4.7909363,4.2288445 0 0 0 10e-4,0 4.7909363,4.2288445 0 0 0 4.78937,-4.2251 v -30.1929 a 1.2671419,0.92444076 0 0 0 -5.2e-4,0 z" /><path
         style="display:inline;opacity:1;fill:#000000;fill-opacity:1;stroke-width:1.39962;stroke-linecap:round;stroke-miterlimit:4.3;stroke-dashoffset:4.98898;paint-order:fill markers stroke"
         d="m -252.67675,347.84719 v 35.76887 c 0,0.5845 -0.046,1.5418 0.0837,2.10963 0.34001,1.48879 1.59707,2.7028 3.25497,3.13081 0.56498,0.14585 1.52375,0.16966 2.09624,0.0565 1.75743,-0.34745 3.15011,-1.54722 3.59192,-3.08196 0.16116,-0.55985 0.1473,-1.51835 0.1473,-2.10285 v -34.82474 c 0,-0.5845 -0.46949,-1.12256 -1.04986,-1.19188 -2.29233,-0.27382 -4.71865,-0.45054 -7.06639,-0.52836 -0.58413,-0.0194 -1.05786,0.28155 -1.05786,0.66401 z"
         id="path92"
         sodipodi:nodetypes="ccccccc"
         inkscape:path-effect="#path-effect101"
         inkscape:original-d="m -252.67675,347.15469 v 0.6925 36.8272 c -0.1476,2.26705 1.81481,4.21048 4.38319,4.3408 2.64589,-1e-5 4.79083,-1.89324 4.79092,-4.2287 v -36.9414 c -2.9315,-0.39641 -6.14708,-0.62788 -9.17411,-0.6904 z" /><path
         id="path93"
         style="display:inline;opacity:1;fill:#000000;fill-opacity:1;stroke-width:1.39962;stroke-linecap:round;stroke-miterlimit:4.3;stroke-dashoffset:4.98898;paint-order:fill markers stroke"
         d="m -284.29724,318.84404 c -1.20973,0.34903 -2.17145,1.3719 -2.62299,2.56643 -0.20616,0.54538 -0.3514,1.49604 -0.32327,2.07847 0.0474,0.98048 0.38093,1.92826 0.6943,2.87213 0.1839,0.55392 0.45535,1.46131 0.63028,2.01902 1.61745,5.15664 3.23489,10.31328 4.85233,15.46993 0.17493,0.55771 0.76468,0.85512 1.32161,0.67777 2.33722,-0.74428 4.72688,-1.31571 7.13088,-1.80239 0.57264,-0.11593 0.89034,-0.65524 0.70846,-1.21073 -2.02016,-6.17003 -4.03214,-12.34286 -6.05816,-18.51088 -0.1824,-0.55531 -0.50063,-1.455 -0.83319,-1.93418 -0.78697,-1.13396 -2.05197,-1.94347 -3.404,-2.23323 -0.57054,-0.12228 -1.53713,-0.15366 -2.09625,0.008 z"
         inkscape:path-effect="#path-effect120"
         inkscape:original-d="m -283.25099,318.71929 c -2.05846,-0.0908 -3.69263,1.77405 -3.92188,3.7162 -0.33056,1.72233 0.49254,3.31925 0.93721,4.93478 1.82861,5.82985 3.65721,11.65971 5.48581,17.48957 2.98896,-1.02468 6.07394,-1.74179 9.1736,-2.3394 -2.24076,-6.8402 -4.46999,-13.68435 -6.71795,-20.52208 -0.78206,-1.94525 -2.88449,-3.26312 -4.95679,-3.27907 z" /><path
         id="path94"
         style="display:inline;opacity:1;fill:#000000;fill-opacity:1;stroke-width:1.39962;stroke-linecap:round;stroke-miterlimit:4.3;stroke-dashoffset:4.98898;paint-order:fill markers stroke"
         d="m -226.31529,311.92154 c -1.32383,0.22991 -2.543,1.05123 -3.16272,2.23411 -0.27035,0.51601 -0.49677,1.44543 -0.67351,2.00257 -2.72144,8.57905 -5.44289,17.15811 -8.16434,25.73716 -0.17674,0.55714 0.14536,1.09797 0.71834,1.21345 2.37734,0.47909 4.74243,1.03346 7.05491,1.76428 0.55702,0.17603 1.14505,-0.12247 1.31796,-0.68081 2.69142,-8.69071 5.38538,-17.38065 8.07506,-26.0719 0.1728,-0.55837 0.44302,-1.47894 0.41482,-2.0607 -0.0917,-1.8931 -1.64154,-3.57034 -3.48,-4.0535 -0.56377,-0.14816 -1.52606,-0.18443 -2.10052,-0.0847 z"
         inkscape:path-effect="#path-effect99"
         inkscape:original-d="m -225.26098,311.86683 c -2.04763,-0.14638 -4.15345,1.21836 -4.57053,3.2826 -2.93478,9.25158 -5.86957,18.50316 -8.80436,27.75474 3.07228,0.59293 6.13392,1.28676 9.09815,2.2991 2.89992,-9.36476 5.80309,-18.72852 8.70099,-28.0939 0.65375,-2.65237 -1.81828,-5.23417 -4.42425,-5.24254 z"
         transform="translate(0,1.458118)" /><path
         id="path95"
         style="display:inline;opacity:1;fill:#000000;fill-opacity:1;stroke-width:1.39962;stroke-linecap:round;stroke-miterlimit:4.3;stroke-dashoffset:4.98898;paint-order:fill markers stroke"
         d="m -271.77969,309.38925 c -2.03975,0.43144 -3.77511,2.33704 -3.76036,4.41647 0.004,0.58245 0.30099,1.49452 0.47706,2.05188 2.66171,8.42571 5.32342,16.85142 7.98513,25.27713 0.17607,0.55736 0.78741,0.93886 1.36669,0.86094 2.34484,-0.31542 4.7041,-0.52357 7.06802,-0.62184 0.58399,-0.0243 0.91754,-0.48925 0.74466,-1.0476 l -8.5186,-27.51264 c -0.17288,-0.55835 -0.47669,-1.46837 -0.83632,-1.92641 -0.59426,-0.75686 -1.47715,-1.27986 -2.42309,-1.48724 -0.56956,-0.12486 -1.53292,-0.13132 -2.10319,-0.0107 z"
         inkscape:path-effect="#path-effect103"
         inkscape:original-d="m -270.72781,309.30302 c -2.80438,-0.13774 -5.50121,2.74101 -4.65398,5.5454 2.87424,9.0985 5.74849,18.19699 8.62273,27.29549 3.03823,-0.45094 6.10322,-0.72174 9.1736,-0.8067 -3.04822,-9.84487 -6.09644,-19.68973 -9.14466,-29.5346 -0.61268,-1.58462 -2.33417,-2.55875 -3.99769,-2.49959 z" /><path
         style="display:inline;opacity:1;fill:#000000;fill-opacity:1;stroke-width:1.39962;stroke-linecap:round;stroke-miterlimit:4.3;stroke-dashoffset:4.98898;paint-order:fill markers stroke"
         d="m -239.64653,303.67793 c -1.26241,0.3095 -2.37323,1.18671 -2.90342,2.36763 -0.2386,0.53146 -0.42404,1.46866 -0.58521,2.0305 -3.08326,10.74795 -6.1665,21.49591 -9.24976,32.24386 -0.16117,0.56184 0.18187,1.02904 0.76601,1.04965 2.36228,0.0833 4.72321,0.24397 7.06795,0.54357 0.57967,0.0741 1.18072,-0.31138 1.34413,-0.87258 3.03224,-10.41389 6.08754,-20.82169 9.10413,-31.23973 0.16256,-0.56143 0.40902,-1.48802 0.36568,-2.06893 -0.14785,-1.98174 -1.85942,-3.68771 -3.80892,-4.09001 -0.57092,-0.11781 -1.53442,-0.10278 -2.10059,0.036 z"
         id="path96"
         inkscape:path-effect="#path-effect102"
         inkscape:original-d="m -238.59802,303.55659 c -2.02096,-0.0257 -3.95752,1.46255 -4.24531,3.50217 -3.27781,11.42615 -6.55561,22.85231 -9.83342,34.27846 3.06742,0.08 6.13627,0.27486 9.17412,0.7195 3.22783,-11.09177 6.48409,-22.17602 9.69415,-33.27248 0.58828,-2.76493 -2.09804,-5.35241 -4.78954,-5.22765 z" /><path
         id="path97"
         style="display:inline;opacity:1;fill:#000000;fill-opacity:1;stroke-width:1.39962;stroke-linecap:round;stroke-miterlimit:4.3;stroke-dashoffset:4.98898;paint-order:fill markers stroke"
         d="m 366.51492,850.33807 c -0.79324,-0.0687 -1.44315,0.15851 -1.8433,0.64441 L 348.8097,866.8444 a 1.036212,1.036212 112.5 0 0 -0.3035,0.73271 v 10.43266 c 2.1e-4,0.61565 0.73305,0.93639 1.18545,0.51883 l 5.27565,-4.86843 16.24449,-16.24449 c 0.77416,-0.77376 0.73439,-2.22473 -0.10232,-3.73311 -0.32738,-0.58982 -0.76171,-1.16033 -1.27073,-1.66915 -1.03494,-0.96642 -2.2583,-1.58304 -3.32382,-1.67535 z"
         inkscape:path-effect="#path-effect98"
         inkscape:original-d="m 366.51492,850.33807 a 4.658192,2.7701771 44.999999 0 0 -1.8433,0.64441 L 348.5062,867.1479 v 10.86187 a 0.70636506,0.70636506 0 0 0 1.18545,0.51883 l 5.27565,-4.86843 16.24449,-16.24449 a 4.7909363,2.8491187 44.999999 0 0 -0.10232,-3.73311 4.7909363,2.8491187 44.999999 0 0 -1.27073,-1.66915 4.658192,2.7701771 44.999999 0 0 -3.32382,-1.67535 z"
         transform="translate(-573.10884,-501.95475)"
         inkscape:export-filename="path168.png"
         inkscape:export-xdpi="200"
         inkscape:export-ydpi="200" /><path
         style="display:inline;opacity:1;fill:#000000;fill-opacity:1;stroke-width:1.39962;stroke-linecap:round;stroke-miterlimit:4.3;stroke-dashoffset:4.98898;paint-order:fill markers stroke"
         d="m -252.67675,347.84719 v 35.76887 c 0,0.5845 -0.046,1.5418 0.0837,2.10963 0.34001,1.48879 1.59707,2.7028 3.25497,3.13081 0.56498,0.14585 1.52375,0.16966 2.09624,0.0565 1.75743,-0.34745 3.15011,-1.54722 3.59192,-3.08196 0.16116,-0.55985 0.1473,-1.51835 0.1473,-2.10285 v -34.82474 c 0,-0.5845 -0.46949,-1.12256 -1.04986,-1.19188 -2.29233,-0.27382 -4.71865,-0.45054 -7.06639,-0.52836 -0.58413,-0.0194 -1.05786,0.28155 -1.05786,0.66401 z"
         id="path114"
         inkscape:path-effect="#path-effect118"
         inkscape:original-d="m -252.67675,347.15469 v 0.6925 36.8272 c -0.1476,2.26705 1.81481,4.21048 4.38319,4.3408 2.64589,-1e-5 4.79083,-1.89324 4.79092,-4.2287 v -36.9414 c -2.9315,-0.39641 -6.14708,-0.62788 -9.17411,-0.6904 z"
         sodipodi:nodetypes="ccccccc"
         transform="matrix(-1,0,0,0.82057779,-510.22787,62.374853)" /></g></g></svg>
